<svg xmlns="http://www.w3.org/2000/svg" xmlns:xlink="http://www.w3.org/1999/xlink" width="200" height="200" class="icon" p-id="6485" t="1631164055788" version="1.1" viewBox="0 0 1024 1024"><defs><style type="text/css"/></defs><path fill="#1296db" d="M392.25605522 249.60252035c-22.67340933-12.28142957-45.34681868-24.56286043-68.02022801-37.0017447l-112.8946852-61.40715175c-15.27306091-8.34507397-21.57123039-21.09886761-12.91124703-36.84429 8.65998335-15.90287708 23.14577211-17.00505733 38.10392363-8.81743675 88.17437007 48.02354063 176.50619612 95.88962787 264.52311279 144.54298596 22.51595594 12.43888426 63.13914815 5.03853584 77.46748222-16.06033176 45.03191058-65.34350733 89.90636778-130.68701338 134.78082368-196.18797541 1.57454172-2.36181388 3.14908474-4.72362646 4.72362645-6.92798564 12.75379235-17.79232819 27.39703709-22.51595594 40.62319222-12.12397618 15.27306091 12.12397617 12.75379235 26.45231154 2.83417665 40.93810029-18.26469097 26.60976493-36.52938192 53.37698455-54.63661949 79.9867508-25.1926779 37.00174469-50.38535452 74.0034894-78.56966246 115.09904437H945.55023185c29.60139627 0 34.16756804 4.72362646 34.32502273 34.32502273 0.3149081 202.95850636 0.47236277 405.75955933 0.78727086 608.718067 0 28.97157882-5.19598923 34.01011466-34.7973855 34.16756804-7.7152578 0-15.587969 0.78727086-23.14577211-0.15745469-28.02685326-3.14908474-48.49590341-0.47236277-58.258067 34.16756933-8.81743675 31.17593799-42.04028053 47.07881637-71.95658361 43.92973035-34.63993083-3.62144751-57.47079485-24.09049766-66.28823289-56.3686146-5.35344394-19.52432459-14.48579005-22.20104656-32.12066354-22.04359316-121.71212193 0.78727086-243.2667905 0.47236277-364.97891244 0.15745467-14.01342727 0-22.20104656 1.25963363-26.29485684 18.26469097-8.81743675 36.52938192-38.8911958 59.67515404-72.1140396 60.3049715-34.48247743 0.62981747-64.39878179-21.88613847-74.47585217-59.83260872-4.25126368-15.90287708-11.33670531-19.52432459-25.97994875-18.73705375-18.89450843 1.10218023-37.94647025 0.47236277-56.99843207 0.15745341-20.78395823-0.47236277-29.91630436-8.97489145-29.91630436-29.2864869 0.15745469-206.26504579 0.47236277-412.68754498 0.94472554-619.11004545 0-21.4137757 8.65998335-28.49921603 32.43557164-28.49921604 97.77907898-0.15745469 195.55815794 0 293.17978221 0h20.46905146c0.62981747-1.73199641 1.25963363-3.46399282 1.88944981-5.35344392z m540.54038299 634.69801444V301.09005509H93.40792098v583.2104797h839.38851723z m-674.37648112 49.12572089H200.63425417c3.93635561 16.53269455 11.96652149 28.18430795 27.39703579 29.1290335 17.16251201 1.25963363 25.3501313-11.49415871 30.38866713-29.1290335z m510.62407864-0.1574547c5.8258067 17.63487349 13.69851789 30.54612183 31.0184846 29.2864882 15.587969-1.10218023 22.83086403-13.22615513 27.55449049-29.2864882h-58.57297509z" p-id="6486"/><path fill="#1296db" d="M513.81072377 844.14970537H176.3863018c-32.75048101 0-37.94647025-5.19598923-37.94647024-37.94647026 0.15745469-141.07899314 0.3149081-282.15798628 0.62981746-423.39443412 0-29.75884967 6.14071479-35.89956575 35.74210977-35.89956445h677.05320439c30.07375905 0 36.21447383 5.98326139 36.37192722 35.42720297 0.47236277 141.86626401 0.78727086 283.57507461 0.94472556 425.44133732 0 30.38866713-6.29816947 36.21447383-37.63156218 36.37192854H513.81072377z m324.5131749-49.91299174V397.29459105H188.66773139v396.94212258h649.65616728z" p-id="6487"/><path fill="#1296db" d="M516.8023538 723.85467045c-8.65998335 6.14071479-16.69014924 13.06870173-25.82249407 17.94978288-30.07375905 15.90287708-59.99006341 14.48579005-87.70200729-4.88108115-30.54612183-21.4137757-44.08718503-52.74716839-41.41046437-89.2765503 0.62981747-7.87271119 15.11560622-20.31159546 23.4606815-20.62650485 8.18762058-0.3149081 18.57959905 11.02179594 24.56286042 19.6817793 4.72362646 6.92798565 2.67672196 17.94978287 5.98326011 26.29485683 6.29816947 15.90287708 17.94978287 31.0184846 35.42720298 27.23958241 12.91124703-2.67672196 24.56286043-15.74542369 34.16756804-26.45231025 4.72362646-5.35344394 3.93635561-15.90287708 5.19599053-24.09049895 2.20435919-15.587969 11.17925063-25.03522321 26.45231153-24.72031383 13.85597259 0.3149081 22.83086403 8.81743675 24.72031384 23.93304297 1.10218023 9.60470762 1.41708833 21.57123039 7.08544033 27.86939987 9.13234613 10.23452507 22.04359317 22.51595594 33.85265996 22.98831741 10.54943316 0.3149081 23.46068019-12.59633895 31.80575547-22.67340933 5.51089861-6.61307756 5.19598923-18.42214565 6.92798693-28.02685325 2.83417665-15.27306091 11.49415871-24.56286043 27.2395824-23.46068151 15.587969 1.25963363 23.77558957 11.33670531 23.14577212 27.2395824-1.57454172 40.15082943-17.31996541 72.74385575-54.47916481 90.69363864-34.63993083 16.69014924-67.07550375 9.60470762-95.41726508-16.21778517-1.57454172-1.10218023-3.30653942-2.04690449-5.19599054-3.46399412zM793.92180426 573.64333248c0.47236277 23.77558957-18.89450843 36.84429002-36.84429001 26.60976494-48.02354063-27.39703709-95.25981169-56.21116122-142.33862678-85.18274003-12.43888426-7.7152578-15.11560622-20.31159546-7.87271249-33.06538909 7.40034843-13.06870173 20.46905015-16.53269455 32.59302632-9.60470762 48.49590341 28.02685326 96.51944533 56.84097867 144.22807787 86.28491898 5.51089861 3.62144751 8.18762058 11.96652149 10.23452509 14.95815282zM384.06843594 482.16242298c4.40871837 4.40871837 15.74542369 10.54943316 17.00505732 18.10723628 1.41708833 8.97489145-3.30653942 24.56286043-10.23452637 28.02685325-41.72537245 21.4137757-84.55292385 40.62319221-127.53792865 59.67515533-13.06870173 5.8258067-27.39703709 1.41708833-30.70357522-12.75379363-2.20435919-9.28979952 1.73199641-26.76721962 8.34507397-30.23121246 42.98500609-22.04359317 87.3870992-41.095555 131.31683084-61.09224235 1.8894511-0.78727086 4.09381029-0.62981747 11.80906811-1.73199642z" p-id="6488"/></svg>