<?xml version="1.0" standalone="no"?><!DOCTYPE svg PUBLIC "-//W3C//DTD SVG 1.1//EN" "http://www.w3.org/Graphics/SVG/1.1/DTD/svg11.dtd"><svg t="1631164044735" class="icon" viewBox="0 0 1024 1024" version="1.1" xmlns="http://www.w3.org/2000/svg" p-id="6353" xmlns:xlink="http://www.w3.org/1999/xlink" width="200" height="200"><defs><style type="text/css"></style></defs><path d="M512 512m-509.44 0a509.44 509.44 0 1 0 1018.88 0 509.44 509.44 0 1 0-1018.88 0Z" fill="#FFFFFF" p-id="6354"></path><path d="M392.704 740.864l3.584 10.24s15.872-5.12 17.92-10.24c1.536-5.12-21.504 0-21.504 0z m-188.416-87.04l32.256-28.672s-20.48-33.792 0-82.944c-0.512-14.336-158.72 36.864-158.72 105.984 3.072 31.232 85.504 54.272 197.12 44.032-1.536-1.536-27.136-36.864-27.136-36.864l-43.52-1.536z" fill="#FE7700" p-id="6355"></path><path d="M240.128 636.928l-6.656 7.68h6.656v-7.68zM339.456 481.28s23.552 15.36 64 0l-15.36-22.016-48.64 22.016z m18.432-154.624c41.472 0 75.264-31.744 75.264-70.656S399.36 185.344 357.888 185.344 282.624 217.088 282.624 256s33.792 70.656 75.264 70.656z m0-121.344h4.608c-9.728 5.12-16.384 15.36-16.384 27.648 0 17.408 13.824 31.232 31.232 31.232 13.824 0 25.6-8.704 29.696-20.992 1.024 4.096 1.536 8.192 1.536 12.8 0 28.16-22.528 50.688-50.688 50.688-10.24 0-19.968-3.072-28.16-8.192 9.728 0 17.92-8.192 17.92-17.92s-8.192-17.92-17.92-17.92c-9.216 0-16.384 6.656-17.408 15.36-3.072-6.656-5.12-14.336-5.12-22.528 0-27.648 22.528-50.176 50.688-50.176z m91.136 267.264c10.24-6.656-8.192-44.032-11.776-45.568-11.776 11.776-42.496 27.136-42.496 27.136s44.032 25.088 54.272 18.432z m-116.736 131.072c83.456-23.552 100.352-43.008 100.352-43.008s-77.824-48.128-118.784-49.152c-17.408-0.512-37.888 10.24-53.248 25.088 22.528 2.56 71.168 18.944 71.168 18.944 51.2-27.648 56.32-14.336 56.32-14.336-35.328 8.192-125.44 90.112-125.44 90.112 8.192-22.528 60.416-68.608 60.416-68.608-7.168-6.656-48.128-18.944-65.024-24.064-19.456 19.456-31.744 45.056-22.528 62.976 52.224 113.152 152.064 126.464 152.064 126.464 75.776-6.656 91.136-74.24 92.672-77.824-92.16 2.048-145.408-41.984-147.968-46.592z m354.304-401.408c-21.504 11.264-41.984 25.088-15.36 32.256 0 0 38.912-61.44 123.904-26.112 2.048-0.512-34.304-30.72-108.544-6.144z" fill="#FE7700" p-id="6356"></path><path d="M512 2.56C230.4 2.56 2.56 230.4 2.56 512S230.4 1021.44 512 1021.44s509.44-227.84 509.44-509.44S793.6 2.56 512 2.56z m208.896 631.296c-122.88 130.048-194.048 151.552-209.408 160.256 3.584 3.584 11.776 70.656-20.48 102.912 0 1.536-22.016 45.568-47.104 44.032-25.088-1.536-52.224-118.272-52.224-118.272s-161.792-44.032-188.928-44.032c0-1.536 16.896-57.344 122.88-49.152 8.192 0-32.256-30.208-32.256-30.208s-197.12 15.36-219.136-41.984c-22.016-57.344 118.272-139.264 178.688-121.344-1.536 0 25.088-20.48 41.984-24.576-5.12 0.512-144.384-2.048-198.656-70.144 0 0 102.912-207.36 247.808-283.136s290.304 35.328 290.304 35.328 64-54.272 180.736-16.896C896 203.776 901.12 267.776 901.12 267.776s-84.48 11.776-138.24 64c5.12 3.584 81.408 172.032-41.984 302.08z" fill="#FE7700" p-id="6357"></path><path d="M474.112 398.336c-10.24 10.24-32.256 25.088-32.256 25.088l40.448 30.72c8.704-10.24-1.536-55.808-8.192-55.808z m18.944-26.624c-2.048 8.192-11.264 19.968-14.336 22.528 8.704 4.608 24.576 21.504 24.576 21.504 8.704-14.336-3.584-41.472-10.24-44.032z" fill="#FE7700" p-id="6358"></path></svg>